<?xml version="1.0" encoding="UTF-8"?>
<svg id="Layer_2" data-name="Layer 2" xmlns="http://www.w3.org/2000/svg" viewBox="0 0 819.21 138.87">
  <defs>
    <style>
      .cls-1 {
        fill: #2d7033;
      }
    </style>
  </defs>
  <g id="Layer_1-2" data-name="Layer 1">
    <g>
      <g>
        <path class="cls-1" d="m30.54,51.31c-2.44-1.73-5.36-2.84-8.31-3.32-3.24-.52-1.96-1.35.3-2.87,5.04-3.38,11.53-4.35,17.48-3.69,3.03.34,5.94,1.2,8.61,2.66,1.36.74,5.74,3.25,5.79,5.12.05,1.74-3.08,1.35-4.79,1.83-2.43.68-4.61,1.81-6.54,3.44,4.18-1.79,8.57-2.93,13.13-3.1,2.6-.1,11.31.08,10.69,3.56-.2,1.14-1.73,3.93-2.33,5-1.04,1.83-1.77,1.58-3.82,1.51-2.57-.09-5.12.02-7.68.09-1.19.04-4.88-.65-5.62.27,2.6,3.84,7.26,5.96,11.54,7.34,1.92.62,2.54.9,3.57-.84,1.08-1.84,1.47-4.34,2.44-6.3,1.95-3.95,4.73-7.34,8.11-10.16,3.34-2.78,7.52-4.26,10.86-6.91-5.44,1.36-10.17,4.35-15.23,6.6,2.72-4.1,6.32-7.19,10.7-9.89-7.15-1.95-13.87-3.9-19.78-8.53-3.41-2.67-5.73-2.28-9.97-2.24-1.71.01-5.32.67-6.77-.03-1.4-.68-1.36-.18-.97-2.1,1.29-6.4,8.42-11.63,14.03-13.91,7.45-3.02,16.28-2.63,23.87-.33-1.04-.92-2.6-1.42-3.88-1.87-.78-.28-4.03-.54-4.55-1.07-1.65-1.69,5.17-6.09,6.58-6.95C84.84.49,93.58-.77,101.42.44c3.97.62,7.82,1.94,11.33,3.9,1.46.81,9.8,5.82,8.8,7.94-.36.75-4.71.44-5.46.51-2.3.21-4.58.59-6.82,1.14-4.16,1.02-8.47,2.52-12,5,11.32-3.64,23.34-7.31,35.27-4.31,4.56,1.15,8.78,3.37,12,6.83,1.58,1.69,2.97,3.65,3.97,5.74,2,4.16-.21,3.44-3.93,3.43-3.32-.01-6.64-.01-9.96-.02-3,0-7.37-.9-10.2.08-2.24.77-4.01,3.54-6.12,4.8-2.31,1.38-4.9,2.26-7.5,2.92-9.94,2.54-24.49,3.58-27.82,15.78-1.16,4.27,2.14,2.28,4.44.69,1.71-1.18,4.15-4.18,3.56-.11-.92,6.39-9.76,7.94-9.46,14.65,2.3-3.43,4.74-6.75,8.66-8.44,4.42-1.91,8.87-.8,13.38.12,4.82.98,9.27,2.52,13.54-.77,1.28-.99,2.67-1.83,1.2-2.57-.65-.33-3.72.13-4.47.14-1.49.03-2.98.03-4.48.04-2.16.01-13.55,1.42-14.01-.54-.23-1,2.74-4.17,3.35-4.85,1.42-1.59,3.08-2.97,4.9-4.07,9.69-5.84,19.71-2.8,29.85-.42-4.01-2.33-8.08-3.26-12.56-4.2-1.45-.3-2.14,0-1.14-1.43,1.06-1.53,4.34-2.78,5.97-3.45,7.81-3.23,18.09-2.53,25.02,2.46,1.49,1.07,2.7,2.99,4.23,3.9,1.34.8,3.28.59,4.78.87,3.54.66,6.94,2,9.8,4.21,1.72,1.33,7.15,6.03,4.44,7.51-1.09.6-5.76-.19-7.06-.19-2.92,0-5.85-.12-8.77,0-3.81.15-6.39,3.11-9.83,4.65-4.33,1.93-9.07,2.75-13.79,2.83-4.56.08-8.6,1.64-13.14,2.06-4.85.45-9.58-.13-14.39-.69-4.46-.52-8.99-.65-13.39.41-3.29.79-9.48,2.98-10.42,6.87-1.4,5.82,16.96,9.36,20.78,10.97,4.44,1.87,8.38,4.64,11.87,7.95,1.88,1.79,3.44,3.85,5.25,5.69,1.71,1.74,3.7,1.95,5.93,2.82,4.44,1.72,7.26,4.75,11.13,7.23,2.14,1.37,4.96,1.49,7.38,1.9,1.45.25,5.71.22,6.33,1.6-36.61-.12-73.09-.77-109.57.12-.01-.16-.03-.31-.04-.47,8.77-1.88,17.76-3.39,26.32-6.09,3.69-1.16,5.72-2.56,7.86-5.66,1.04-1.5.93-1.71,2.66-.39,1.35,1.02,2.44,2.59,2.97,4.18,2.15-6.33-6.56-9.04-11.08-10.38-5.34-1.57-10.58-3.18-12.87-8.78-.32-.77-.98-2.18-.87-3.06.1-.8.99-1.04.93-1.58-.16-1.52-3.32-3.9-4.46-4.69-4.21-2.93-9.85-3.9-14.85-4.04-6.05-.17-12.42-.83-17.65-4.17-2.11-1.34-3.39-3.91-5.39-5.14-1.82-1.12-6.4-.3-8.42-.31-1.14,0-6.81.66-7.36-.48-.58-1.19,2.98-5.07,3.62-5.76,3.38-3.59,8.02-5.45,12.86-6.01,4.8-.56,9.45.32,14,1.95Zm48.01,28.87c-4.27-2.34-7.99-5.32-10.84-9.35,2.64,11.01,13.58,18.46,22.77,23.86-3.14-4.53-7.92-7.51-11.26-11.87,8.81,2.13,15.89,6.43,22.79,12.11,1.57,1.29,7.53,5.3,6.5.46-.82-3.86-5.2-6.95-8.43-8.72-7.07-3.89-16.78-3.16-22.58-9.23-2.51-2.63-3.57-6.01-2.19-9.46.83-2.07,1.74-3.61,2.05-5.87.28-2.08.2-4.2.64-6.26-3.25,3.58-6.09,7.84-5.71,12.9.34,4.55,3.27,8.23,6.26,11.43Zm-14.51-49.55c.35.41.45.57.59.68,4.63,3.83,10.15,5.25,15.97,5.81.6.06.96-.12.48-.76-1.15-1.52-1.99-3.2-2.56-5.02-.17-.53-.55-.71-1.05-.71-4.37,0-8.73,0-13.42,0Zm50.71,66.54c-.11.09-.22.18-.33.27.31,2.04,2.53,3.97,2.65,5.86.14,2.19-1.37.06-3.24.34,4.99,4.04,10.77,5.94,17.2,6.15-6.07-3.39-11.44-7.65-16.28-12.61Zm-27.86,5.81c3.71.7,6.58,2.46,9.51,4.11,3.08,1.73,7.07,2.85,10.62,2.83-6.26-3.7-12.57-12.03-20.13-6.94Zm8.17-65.38c3.76-.07,7.45-.28,10.66-2.52.42-.29,3.7-3.23,3.24-4.1-.43-.8-3.27-.35-4.24-.34-2.7.04-3.12.41-4.99,2.39-1.5,1.58-3.02,3.14-4.67,4.57ZM27.17,61.59h0c-1.21.01-3.6-.45-4.7.02-1.24.53-1.1-.01-.42,1.24,1.31,2.39,6.45,3.54,8.85,3.98.51.09,4,.89,4.3.4.49-.82-.92-2.47-1.28-3.26-.72-1.6-.44-1.9-2.05-2.4-1.24-.39-3.38.01-4.7.01Zm68.63,31.34c2.79,8.5,11.48,14.98,18.5,16.31-6.81-4.69-12.04-10.89-18.5-16.31Zm-3.07-62.32c-2.48,0-5.59,0-8.7,0-1.42,0,1.94,5.09,3.17,5.32,1.91.35,4.34-3.92,5.53-5.32Zm41.31,27.16c-2.43,0-4.86,0-7.29,0-1.29,0-3.83,3.78-4.87,4.69,4.72.22,8.7-1.47,12.15-4.69Zm14.26.42c-.04-.14-.08-.28-.12-.41-2.14,0-5.79-.66-7.78.16-1.49.62-3.33,2.88-4.55,4.01,4.68-.42,8.77-1.41,12.45-3.76Zm-74.21,28.49c-5-4.55-9.99-9.1-14.99-13.65l-.29.32c3.72,5.97,9.11,10.09,15.27,13.33Zm-29.57-18.88c-1.49-1.94-2.56-3.78-3.19-5.84-.23-.77-3.06-.65-3.38-.36-.92.81-.43,1.09.27,2.22,1.39,2.23,3.74,3.59,6.3,3.98Zm66.08-32.35c3.02-1.06,5.62-2.23,7.73-4.84-1.22,0-4.17-.58-5.22.16-1.03.72-1.9,3.59-2.51,4.68Z"/>
        <path class="cls-1" d="m93.32,132.78c-18.08,0-36.16-.02-54.24.03-1.74,0-2.75-.56-3.39-2.15-1.14-2.82-2.38-5.6-3.6-8.39-.41-.93-.12-1.28.84-1.26,1.01.02,2.03.02,3.04,0,19.14-.28,38.28-.08,57.42-.32,19.97-.24,39.94-.05,59.91-.17,2.49-.02,2.5.01,1.58,2.3-1,2.48-2.07,4.93-3.07,7.41-.7,1.75-1.88,2.53-3.83,2.52-18.22-.04-36.44-.03-54.66-.03v.03Z"/>
        <path class="cls-1" d="m93.82,113.31c22.56,0,45.13,0,67.69,0,.42,0,.83.03,1.25,0,1.28-.1,1.51.47,1.13,1.59-1.75,5.3-1.93,4.58-6,4.58-31.84.03-63.67-.07-95.51.1-11.44.06-22.88.04-34.32.23-1.89.03-3.1-.54-3.66-2.38-.3-.97-.67-1.91-1.02-2.87-.34-.93.03-1.29.95-1.27.6.02,1.2,0,1.8,0,22.56,0,45.13,0,67.69,0h0Z"/>
        <path class="cls-1" d="m53.93,133.8c2.83,0,5.67-.08,8.49,0,2.09.06,2.28-.15,1.51,1.44-1.78,3.65-5.84,3.46-9.22,3.32-3.09-.13-10.35,1.65-11.72-2.16-.87-2.44.75-2.58,2.63-2.6,2.77-.03,5.53,0,8.3,0h0Z"/>
        <path class="cls-1" d="m133.31,138.6c-2.11,0-4.81.44-6.85-.03-1.33-.3-4.15-2.22-4.52-3.66-.44-1.69.84-1.1,2.76-1.11,2.72,0,5.43-.01,8.15,0,2.38,0,4.76-.01,7.15,0,2.2.02,3.44-.09,2.75,2.55-.95,3.65-6.59,2.24-9.43,2.24h0Z"/>
      </g>
      <g>
        <path class="cls-1" d="m248.8,40.95c5.4,2.86,9.58,6.88,12.54,12.05,2.96,5.17,4.44,11.14,4.44,17.9s-1.48,12.65-4.44,17.85c-2.96,5.2-7.16,9.24-12.58,12.1-5.43,2.86-11.72,4.29-18.88,4.29h-25.66V36.65h25.66c7.22,0,13.53,1.43,18.93,4.29Zm-5.27,44.58c3.51-3.45,5.27-8.32,5.27-14.63s-1.76-11.22-5.27-14.73c-3.51-3.51-8.42-5.27-14.73-5.27h-7.9v39.8h7.9c6.31,0,11.22-1.72,14.73-5.17Z"/>
        <path class="cls-1" d="m326.16,81.92h-37.75c.26,3.38,1.35,5.97,3.27,7.76,1.92,1.79,4.28,2.68,7.07,2.68,4.16,0,7.06-1.76,8.68-5.27h17.76c-.91,3.58-2.55,6.8-4.93,9.66-2.38,2.86-5.35,5.11-8.93,6.73-3.58,1.63-7.58,2.44-12,2.44-5.33,0-10.08-1.14-14.24-3.41-4.16-2.28-7.41-5.53-9.76-9.76-2.34-4.23-3.51-9.17-3.51-14.83s1.15-10.6,3.46-14.83c2.31-4.23,5.54-7.48,9.71-9.76,4.16-2.28,8.94-3.41,14.34-3.41s9.95,1.11,14.05,3.32c4.1,2.21,7.3,5.37,9.61,9.46,2.31,4.1,3.46,8.88,3.46,14.34,0,1.56-.1,3.19-.29,4.88Zm-16.78-9.27c0-2.86-.98-5.14-2.93-6.83-1.95-1.69-4.39-2.54-7.32-2.54s-5.15.81-7.07,2.44c-1.92,1.63-3.11,3.94-3.56,6.93h20.88Z"/>
        <path class="cls-1" d="m335.38,63.09c2.31-4.23,5.53-7.48,9.66-9.76,4.13-2.28,8.86-3.41,14.2-3.41,6.83,0,12.54,1.79,17.12,5.37,4.58,3.58,7.59,8.62,9.02,15.12h-17.76c-1.5-4.16-4.39-6.24-8.68-6.24-3.06,0-5.5,1.19-7.32,3.56-1.82,2.38-2.73,5.77-2.73,10.19s.91,7.82,2.73,10.19c1.82,2.38,4.26,3.56,7.32,3.56,4.29,0,7.19-2.08,8.68-6.24h17.76c-1.43,6.38-4.46,11.38-9.07,15.02-4.62,3.64-10.31,5.46-17.07,5.46-5.33,0-10.07-1.14-14.2-3.41-4.13-2.28-7.35-5.53-9.66-9.76-2.31-4.23-3.46-9.17-3.46-14.83s1.15-10.6,3.46-14.83Z"/>
        <path class="cls-1" d="m404.64,102.51c-4.26-2.28-7.61-5.53-10.05-9.76-2.44-4.23-3.66-9.17-3.66-14.83s1.23-10.52,3.71-14.78c2.47-4.26,5.85-7.53,10.15-9.8,4.29-2.28,9.1-3.41,14.44-3.41s10.15,1.14,14.44,3.41c4.29,2.28,7.67,5.55,10.14,9.8,2.47,4.26,3.71,9.19,3.71,14.78s-1.25,10.52-3.76,14.78c-2.51,4.26-5.92,7.53-10.24,9.8-4.33,2.28-9.16,3.41-14.49,3.41s-10.13-1.14-14.39-3.41Zm22.54-14.54c2.24-2.34,3.37-5.69,3.37-10.05s-1.09-7.71-3.27-10.05c-2.18-2.34-4.86-3.51-8.05-3.51s-5.95,1.16-8.1,3.46c-2.15,2.31-3.22,5.67-3.22,10.1s1.06,7.71,3.17,10.05c2.11,2.34,4.76,3.51,7.95,3.51s5.9-1.17,8.15-3.51Z"/>
        <path class="cls-1" d="m501.86,58.31c-1.24-2.28-3.01-4.02-5.32-5.22-2.31-1.2-5.02-1.81-8.15-1.81-5.4,0-9.72,1.77-12.98,5.32-3.25,3.55-4.88,8.28-4.88,14.19,0,6.31,1.71,11.24,5.12,14.78,3.41,3.55,8.11,5.32,14.1,5.32,4.1,0,7.56-1.04,10.39-3.12,2.83-2.08,4.89-5.07,6.19-8.98h-21.17v-12.29h36.29v15.51c-1.24,4.16-3.33,8.03-6.29,11.61-2.96,3.58-6.72,6.47-11.27,8.68-4.55,2.21-9.69,3.32-15.41,3.32-6.76,0-12.8-1.48-18.1-4.44-5.3-2.96-9.43-7.07-12.39-12.34-2.96-5.27-4.44-11.28-4.44-18.05s1.48-12.79,4.44-18.1c2.96-5.3,7.07-9.43,12.34-12.39,5.27-2.96,11.28-4.44,18.05-4.44,8.19,0,15.1,1.98,20.73,5.95,5.63,3.97,9.35,9.46,11.17,16.49h-18.44Z"/>
        <path class="cls-1" d="m530.59,63.09c2.11-4.23,4.99-7.48,8.63-9.76,3.64-2.28,7.71-3.41,12.2-3.41,3.84,0,7.2.78,10.1,2.34,2.89,1.56,5.12,3.61,6.68,6.15v-7.71h16.68v54.44h-16.68v-7.71c-1.63,2.54-3.89,4.59-6.78,6.15-2.89,1.56-6.26,2.34-10.1,2.34-4.42,0-8.46-1.15-12.1-3.46-3.64-2.31-6.52-5.59-8.63-9.85-2.11-4.26-3.17-9.19-3.17-14.78s1.06-10.5,3.17-14.73Zm34.15,4.98c-2.31-2.41-5.12-3.61-8.44-3.61s-6.13,1.19-8.44,3.56c-2.31,2.37-3.46,5.64-3.46,9.8s1.15,7.46,3.46,9.9c2.31,2.44,5.12,3.66,8.44,3.66s6.13-1.2,8.44-3.61c2.31-2.41,3.46-5.69,3.46-9.85s-1.16-7.45-3.46-9.85Z"/>
        <path class="cls-1" d="m620.98,52.7c2.93-1.72,6.18-2.58,9.76-2.58v17.66h-4.58c-4.16,0-7.29.89-9.37,2.68-2.08,1.79-3.12,4.93-3.12,9.41v25.27h-16.68v-54.44h16.68v9.07c1.95-2.99,4.39-5.35,7.32-7.07Z"/>
        <path class="cls-1" d="m638.58,63.09c2.11-4.23,4.99-7.48,8.63-9.76,3.64-2.28,7.71-3.41,12.2-3.41,3.58,0,6.84.75,9.8,2.24,2.96,1.5,5.28,3.51,6.98,6.05v-25.27h16.68v72.19h-16.68v-7.8c-1.56,2.6-3.79,4.68-6.68,6.24-2.89,1.56-6.26,2.34-10.1,2.34-4.49,0-8.55-1.15-12.2-3.46-3.64-2.31-6.52-5.59-8.63-9.85-2.11-4.26-3.17-9.19-3.17-14.78s1.06-10.5,3.17-14.73Zm34.15,4.98c-2.31-2.41-5.12-3.61-8.44-3.61s-6.13,1.19-8.44,3.56c-2.31,2.37-3.46,5.64-3.46,9.8s1.15,7.46,3.46,9.9c2.31,2.44,5.12,3.66,8.44,3.66s6.13-1.2,8.44-3.61c2.31-2.41,3.46-5.69,3.46-9.85s-1.16-7.45-3.46-9.85Z"/>
        <path class="cls-1" d="m755.99,81.92h-37.75c.26,3.38,1.35,5.97,3.27,7.76,1.92,1.79,4.28,2.68,7.07,2.68,4.16,0,7.06-1.76,8.68-5.27h17.76c-.91,3.58-2.55,6.8-4.93,9.66-2.38,2.86-5.35,5.11-8.93,6.73-3.58,1.63-7.58,2.44-12,2.44-5.33,0-10.08-1.14-14.24-3.41-4.16-2.28-7.41-5.53-9.76-9.76-2.34-4.23-3.51-9.17-3.51-14.83s1.15-10.6,3.46-14.83c2.31-4.23,5.54-7.48,9.71-9.76,4.16-2.28,8.94-3.41,14.34-3.41s9.95,1.11,14.05,3.32c4.1,2.21,7.3,5.37,9.61,9.46,2.31,4.1,3.46,8.88,3.46,14.34,0,1.56-.1,3.19-.29,4.88Zm-16.78-9.27c0-2.86-.98-5.14-2.93-6.83-1.95-1.69-4.39-2.54-7.32-2.54s-5.16.81-7.07,2.44c-1.92,1.63-3.11,3.94-3.56,6.93h20.88Z"/>
        <path class="cls-1" d="m813.5,56.31c3.8,4.13,5.71,9.8,5.71,17.02v31.8h-16.58v-29.56c0-3.64-.94-6.47-2.83-8.49-1.89-2.02-4.42-3.02-7.61-3.02s-5.72,1.01-7.61,3.02c-1.89,2.02-2.83,4.85-2.83,8.49v29.56h-16.68v-54.44h16.68v7.22c1.69-2.41,3.97-4.31,6.83-5.71,2.86-1.4,6.08-2.1,9.66-2.1,6.37,0,11.46,2.07,15.27,6.19Z"/>
      </g>
    </g>
  </g>
</svg>