<?xml version="1.0" encoding="UTF-8"?>
<svg id="Layer_2" data-name="Layer 2" xmlns="http://www.w3.org/2000/svg" viewBox="0 0 721.41 590.19">
  <defs>
    <style>
      .cls-1, .cls-2 {
        fill: #2d7033;
      }

      .cls-2 {
        font-family: Poppins-Bold, Poppins;
        font-size: 112.32px;
        font-weight: 700;
      }
    </style>
  </defs>
  <g id="Layer_1-2" data-name="Layer 1">
    <g>
      <g>
        <path class="cls-1" d="m187.97,155.97c-7.43-5.25-16.3-8.64-25.27-10.08-9.86-1.58-5.96-4.11.92-8.72,15.31-10.28,35.06-13.22,53.14-11.22,9.2,1.02,18.04,3.66,26.19,8.08,4.12,2.24,17.46,9.86,17.61,15.56.15,5.29-9.37,4.1-14.57,5.56-7.39,2.07-14.03,5.49-19.89,10.47,12.71-5.45,26.04-8.91,39.92-9.43,7.9-.29,34.37.25,32.49,10.83-.61,3.45-5.26,11.96-7.09,15.19-3.16,5.57-5.38,4.81-11.61,4.6-7.8-.26-15.55.05-23.34.28-3.63.11-14.82-1.99-17.09.83,7.91,11.68,22.06,18.13,35.08,22.3,5.84,1.87,7.73,2.75,10.85-2.55,3.3-5.6,4.48-13.19,7.42-19.14,5.93-12.01,14.37-22.31,24.65-30.87,10.16-8.46,22.85-12.96,33.02-21.01-16.52,4.12-30.91,13.23-46.28,20.07,8.26-12.46,19.2-21.87,32.51-30.07-21.72-5.94-42.16-11.84-60.13-25.94-10.36-8.13-17.41-6.92-30.32-6.82-5.21.04-16.18,2.03-20.57-.1-4.25-2.07-4.14-.53-2.96-6.37,3.93-19.46,25.59-35.35,42.65-42.27,22.65-9.18,49.5-8.01,72.56-.99-3.17-2.8-7.9-4.31-11.79-5.68-2.38-.84-12.24-1.63-13.84-3.27-5-5.12,15.7-18.51,20.01-21.12,20.77-12.6,47.34-16.43,71.15-12.74,12.07,1.87,23.76,5.91,34.43,11.86,4.43,2.47,29.8,17.71,26.76,24.15-1.08,2.29-14.32,1.35-16.6,1.56-6.98.65-13.92,1.81-20.73,3.48-12.63,3.1-25.75,7.66-36.47,15.19,34.4-11.07,70.94-22.23,107.2-13.1,13.86,3.49,26.68,10.24,36.49,20.76,4.8,5.15,9.02,11.1,12.07,17.46,6.08,12.66-.64,10.46-11.95,10.42-10.09-.04-20.18-.04-30.27-.06-9.13-.01-22.39-2.74-31,.23-6.81,2.35-12.2,10.77-18.6,14.6-7.03,4.21-14.89,6.87-22.79,8.89-30.22,7.73-74.45,10.88-84.57,47.98-3.54,12.97,6.51,6.93,13.5,2.11,5.2-3.59,12.61-12.71,10.82-.34-2.8,19.42-29.66,24.14-28.74,44.54,6.99-10.43,14.42-20.53,26.34-25.66,13.45-5.8,26.95-2.42,40.67.36,14.65,2.97,28.18,7.65,41.17-2.36,3.89-3,8.12-5.56,3.66-7.82-1.96-.99-11.32.4-13.6.44-4.53.08-9.07.1-13.6.13-6.55.04-41.19,4.31-42.57-1.63-.7-3.03,8.34-12.67,10.19-14.74,4.32-4.83,9.35-9.02,14.9-12.36,29.46-17.77,59.91-8.52,90.73-1.27-12.2-7.09-24.57-9.92-38.18-12.76-4.4-.92-6.49.02-3.47-4.36,3.21-4.66,13.18-8.46,18.13-10.5,23.74-9.81,54.98-7.68,76.05,7.48,4.52,3.25,8.21,9.08,12.85,11.85,4.09,2.44,9.98,1.79,14.52,2.63,10.75,2,21.08,6.09,29.77,12.81,5.23,4.04,21.75,18.34,13.5,22.83-3.33,1.81-17.51-.57-21.47-.58-8.86-.02-17.8-.35-26.65,0-11.57.45-19.41,9.46-29.88,14.13-13.16,5.87-27.56,8.35-41.9,8.61-13.85.26-26.13,4.98-39.93,6.28-14.76,1.38-29.11-.4-43.73-2.09-13.56-1.57-27.33-1.97-40.69,1.23-10.01,2.4-28.82,9.05-31.66,20.88-4.25,17.68,51.54,28.46,63.16,33.35,13.49,5.68,25.49,14.11,36.07,24.16,5.72,5.44,10.45,11.71,15.95,17.31,5.2,5.29,11.25,5.93,18.02,8.56,13.5,5.23,22.06,14.44,33.83,21.97,6.5,4.16,15.06,4.53,22.44,5.77,4.42.75,17.34.68,19.23,4.87-111.28-.36-222.17-2.35-333.04.37-.04-.47-.09-.94-.13-1.42,26.66-5.71,53.98-10.3,80.02-18.52,11.2-3.54,17.4-7.77,23.9-17.19,3.15-4.57,2.83-5.19,8.1-1.19,4.09,3.1,7.42,7.86,9.02,12.72,6.53-19.23-19.93-27.49-33.67-31.54-16.23-4.79-32.17-9.65-39.12-26.69-.96-2.35-2.97-6.63-2.65-9.31.29-2.44,3-3.17,2.83-4.8-.49-4.62-10.09-11.84-13.55-14.26-12.79-8.92-29.93-11.85-45.14-12.28-18.39-.52-37.74-2.52-53.66-12.67-6.41-4.09-10.32-11.87-16.37-15.61-5.52-3.41-19.44-.92-25.59-.93-3.47,0-20.7,2-22.37-1.46-1.75-3.63,9.05-15.41,11.01-17.5,10.27-10.92,24.39-16.56,39.08-18.28,14.59-1.71,28.73.96,42.55,5.94Zm145.92,87.75c-12.99-7.12-24.27-16.18-32.95-28.41,8.04,33.46,41.28,56.1,69.2,72.54-9.56-13.77-24.07-22.83-34.21-36.09,26.78,6.46,48.29,19.55,69.26,36.81,4.78,3.93,22.9,16.11,19.76,1.41-2.51-11.74-15.81-21.13-25.62-26.52-21.48-11.81-51.01-9.61-68.63-28.07-7.64-8-10.84-18.26-6.66-28.76,2.51-6.29,5.3-10.97,6.23-17.83.86-6.33.61-12.76,1.94-19.04-9.89,10.9-18.51,23.83-17.36,39.22,1.03,13.83,9.93,25,19.03,34.75Zm-44.09-150.61c1.08,1.25,1.38,1.73,1.8,2.07,14.08,11.65,30.85,15.96,48.55,17.66,1.84.18,2.92-.37,1.45-2.32-3.49-4.63-6.06-9.73-7.78-15.26-.5-1.62-1.67-2.14-3.2-2.14-13.27,0-26.54,0-40.81,0Zm154.15,202.26c-.33.27-.67.54-1,.81.93,6.19,7.69,12.06,8.06,17.8.43,6.66-4.15.17-9.86,1.04,15.18,12.29,32.72,18.07,52.29,18.69-18.44-10.29-34.77-23.26-49.5-38.33Zm-84.68,17.65c11.29,2.14,20.01,7.48,28.91,12.48,9.37,5.27,21.49,8.65,32.28,8.6-19.03-11.24-38.2-36.57-61.19-21.09Zm24.83-198.75c11.42-.22,22.64-.84,32.42-7.66,1.27-.88,11.26-9.81,9.85-12.46-1.29-2.44-9.95-1.07-12.9-1.03-8.21.11-9.48,1.26-15.17,7.26-4.55,4.81-9.18,9.56-14.2,13.89Zm-206.38,72.93v.05c-3.68,0-10.94-1.4-14.29.03-3.77,1.61-3.36-.03-1.26,3.78,3.99,7.27,19.61,10.76,26.91,12.11,1.56.29,12.16,2.71,13.06,1.2,1.49-2.5-2.79-7.5-3.88-9.91-2.2-4.88-1.35-5.77-6.24-7.3-3.78-1.18-10.29.03-14.29.03Zm208.6,95.25c8.48,25.84,34.9,45.54,56.22,49.56-20.69-14.25-36.61-33.11-56.22-49.56Zm-9.34-189.42c-7.55,0-17,0-26.45,0-4.31,0,5.88,15.48,9.64,16.17,5.82,1.07,13.19-11.92,16.81-16.17Zm125.58,82.55c-7.39,0-14.77,0-22.16,0-3.91,0-11.65,11.5-14.79,14.26,14.35.66,26.43-4.47,36.95-14.27Zm43.34,1.27c-.12-.42-.24-.84-.35-1.26-6.49,0-17.61-2.02-23.66.48-4.52,1.87-10.12,8.74-13.82,12.19,14.23-1.26,26.67-4.29,37.84-11.42Zm-225.57,86.6c-15.18-13.83-30.37-27.66-45.55-41.49l-.87.97c11.32,18.15,27.68,30.67,46.42,40.52Zm-89.88-57.39c-4.53-5.88-7.78-11.49-9.7-17.76-.71-2.33-9.29-1.97-10.28-1.09-2.78,2.47-1.32,3.31.82,6.74,4.21,6.78,11.37,10.92,19.16,12.11Zm200.87-98.33c9.17-3.23,17.09-6.79,23.5-14.71-3.72,0-12.69-1.76-15.88.48-3.14,2.2-5.79,10.92-7.62,14.23Z"/>
        <path class="cls-1" d="m378.8,403.62c-54.96,0-109.92-.06-164.88.1-5.27.02-8.35-1.69-10.3-6.53-3.46-8.58-7.23-17.03-10.95-25.5-1.24-2.82-.36-3.89,2.56-3.84,3.08.06,6.17.06,9.25.02,58.17-.84,116.36-.26,174.53-.97,60.7-.74,121.4-.14,182.1-.51,7.56-.05,7.61.04,4.8,7-3.05,7.53-6.29,14.99-9.33,22.53-2.14,5.3-5.72,7.68-11.63,7.67-55.38-.13-110.76-.08-166.14-.08v.1Z"/>
        <path class="cls-1" d="m380.3,344.42c68.58,0,137.17,0,205.75,0,1.26,0,2.53.1,3.79,0,3.9-.31,4.58,1.42,3.45,4.83-5.33,16.11-5.88,13.92-18.23,13.93-96.77.08-193.55-.21-290.32.29-34.77.18-69.55.11-104.32.71-5.74.1-9.43-1.64-11.14-7.23-.9-2.94-2.03-5.82-3.09-8.71-1.04-2.82.08-3.93,2.9-3.85,1.82.05,3.65,0,5.47,0,68.58,0,137.17,0,205.75,0v.03Z"/>
        <path class="cls-1" d="m259.05,406.7c8.6,0,17.23-.24,25.82.02,6.37.19,6.94-.44,4.59,4.38-5.41,11.09-17.77,10.51-28.02,10.09-9.38-.38-31.47,5.02-35.62-6.56-2.66-7.42,2.29-7.84,8-7.9,8.41-.09,16.82,0,25.22,0v-.02Z"/>
        <path class="cls-1" d="m500.37,421.29c-6.41,0-14.61,1.34-20.82-.09-4.03-.93-12.62-6.75-13.75-11.13-1.32-5.13,2.54-3.35,8.38-3.37,8.26-.02,16.52-.03,24.77-.02,7.24,0,14.48-.04,21.72.01,6.69.05,10.45-.29,8.37,7.75-2.87,11.11-20.04,6.82-28.67,6.82v.02Z"/>
      </g>
      <text class="cls-2" transform="translate(0 522.13)"><tspan x="0" y="0">DecoGarden</tspan></text>
    </g>
  </g>
</svg>