<?xml version="1.0" encoding="UTF-8"?>
<svg id="Layer_2" data-name="Layer 2" xmlns="http://www.w3.org/2000/svg" viewBox="0 0 824.15 654.97">
  <defs>
    <style>
      .cls-1 {
        fill: #2d7033;
      }
    </style>
  </defs>
  <g id="Layer_1-2" data-name="Layer 1">
    <g>
      <path class="cls-1" d="m144.05,242.01c-11.53-8.15-25.28-13.41-39.21-15.64-15.3-2.45-9.24-6.37,1.43-13.53,23.76-15.96,54.4-20.52,82.46-17.41,14.28,1.58,28,5.68,40.63,12.54,6.4,3.48,27.08,15.31,27.33,24.15.23,8.2-14.55,6.37-22.61,8.63-11.46,3.22-21.77,8.52-30.86,16.24,19.73-8.46,40.41-13.82,61.94-14.62,12.26-.46,53.33.38,50.41,16.81-.95,5.36-8.15,18.55-11,23.57-4.9,8.64-8.35,7.46-18.01,7.13-12.1-.41-24.13.08-36.22.43-5.63.17-23-3.09-26.52,1.29,12.27,18.13,34.22,28.12,54.44,34.6,9.06,2.9,12,4.26,16.83-3.95,5.11-8.69,6.95-20.46,11.51-29.7,9.2-18.64,22.3-34.61,38.25-47.9,15.76-13.12,35.46-20.1,51.23-32.59-25.64,6.4-47.97,20.53-71.82,31.14,12.82-19.33,29.79-33.93,50.45-46.66-33.71-9.22-65.42-18.38-93.29-40.25-16.07-12.61-27.02-10.74-47.04-10.58-8.08.06-25.1,3.16-31.92-.16-6.6-3.21-6.42-.83-4.59-9.88,6.11-30.2,39.7-54.85,66.18-65.59,35.14-14.25,76.8-12.43,112.59-1.54-4.92-4.34-12.26-6.68-18.29-8.82-3.69-1.31-19-2.53-21.47-5.07-7.77-7.95,24.37-28.71,31.05-32.77C400.17,2.3,441.39-3.65,478.33,2.08c18.73,2.91,36.86,9.17,53.42,18.41,6.88,3.84,46.24,27.47,41.52,37.47-1.68,3.56-22.22,2.09-25.75,2.42-10.83,1-21.61,2.8-32.17,5.4-19.6,4.82-39.95,11.88-56.58,23.57,53.37-17.18,110.08-34.5,166.33-20.33,21.5,5.41,41.39,15.9,56.61,32.21,7.45,7.99,13.99,17.22,18.73,27.09,9.44,19.64-.99,16.23-18.54,16.16-15.65-.06-31.31-.07-46.96-.09-14.17-.02-34.74-4.25-48.11.36-10.56,3.64-18.93,16.7-28.87,22.65-10.91,6.53-23.1,10.65-35.36,13.79-46.89,12-115.53,16.88-131.22,74.45-5.49,20.13,10.1,10.76,20.94,3.28,8.07-5.57,19.56-19.73,16.8-.53-4.35,30.13-46.02,37.46-44.6,69.11,10.84-16.19,22.38-31.85,40.87-39.82,20.86-8.99,41.81-3.75,63.1.57,22.73,4.61,43.73,11.87,63.88-3.66,6.04-4.66,12.6-8.63,5.67-12.13-3.04-1.54-17.57.61-21.1.68-7.03.13-14.07.16-21.11.2-10.17.06-63.91,6.69-66.06-2.53-1.09-4.7,12.93-19.65,15.81-22.87,6.7-7.5,14.51-13.99,23.12-19.19,45.72-27.57,92.96-13.21,140.78-1.96-18.93-11.01-38.13-15.39-59.24-19.8-6.83-1.43-10.08.04-5.39-6.76,4.98-7.23,20.46-13.12,28.14-16.29,36.83-15.22,85.31-11.92,118,11.6,7.02,5.05,12.74,14.09,19.95,18.39,6.34,3.78,15.49,2.77,22.53,4.08,16.68,3.11,32.71,9.45,46.2,19.88,8.11,6.27,33.75,28.46,20.94,35.43-5.16,2.81-27.18-.89-33.32-.9-13.75-.03-27.61-.54-41.35,0-17.96.7-30.12,14.68-46.37,21.93-20.42,9.11-42.76,12.95-65.02,13.37-21.49.4-40.54,7.73-61.96,9.74-22.9,2.14-45.17-.61-67.86-3.24-21.04-2.43-42.4-3.06-63.14,1.91-15.53,3.72-44.72,14.04-49.13,32.4-6.59,27.43,79.97,44.16,98,51.75,20.93,8.81,39.55,21.89,55.97,37.49,8.88,8.44,16.21,18.17,24.75,26.86,8.07,8.21,17.45,9.2,27.97,13.28,20.95,8.12,34.22,22.4,52.49,34.09,10.09,6.45,23.37,7.02,34.82,8.96,6.85,1.16,26.91,1.06,29.83,7.56-172.67-.56-344.72-3.65-516.77.57-.07-.73-.14-1.46-.21-2.2,41.37-8.86,83.75-15.98,124.16-28.74,17.39-5.49,27-12.06,37.08-26.68,4.89-7.09,4.39-8.05,12.56-1.85,6.35,4.82,11.52,12.2,13.99,19.73,10.14-29.84-30.93-42.65-52.25-48.94-25.18-7.43-49.91-14.98-60.7-41.41-1.49-3.64-4.61-10.28-4.11-14.45.45-3.78,4.65-4.92,4.39-7.44-.75-7.17-15.65-18.38-21.03-22.12-19.85-13.84-46.44-18.39-70.05-19.05-28.54-.81-58.56-3.91-83.25-19.65-9.95-6.34-16.01-18.42-25.4-24.23-8.57-5.29-30.17-1.43-39.71-1.44-5.39,0-32.12,3.11-34.71-2.27-2.72-5.63,14.04-23.91,17.08-27.15,15.93-16.94,37.85-25.69,60.64-28.36,22.64-2.65,44.57,1.5,66.03,9.22Zm226.42,136.16c-20.15-11.04-37.66-25.11-51.12-44.08,12.47,51.92,64.06,87.05,107.37,112.55-14.83-21.37-37.35-35.42-53.09-56,41.56,10.03,74.93,30.34,107.47,57.11,7.41,6.1,35.53,24.99,30.66,2.18-3.89-18.22-24.54-32.78-39.76-41.15-33.34-18.33-79.15-14.91-106.5-43.55-11.85-12.41-16.83-28.34-10.33-44.62,3.9-9.77,8.22-17.02,9.67-27.67,1.34-9.82.94-19.8,3.01-29.54-15.34,16.91-28.72,36.97-26.94,60.86,1.6,21.46,15.4,38.8,29.53,53.91Zm-68.41-233.69c1.67,1.94,2.14,2.68,2.79,3.21,21.85,18.07,47.86,24.76,75.33,27.41,2.85.27,4.53-.58,2.24-3.61-5.42-7.19-9.41-15.1-12.08-23.68-.78-2.51-2.59-3.33-4.97-3.33-20.59,0-41.19,0-63.32,0Zm239.18,313.84c-.52.42-1.04.84-1.56,1.25,1.45,9.61,11.94,18.72,12.51,27.62.67,10.33-6.45.27-15.29,1.61,23.55,19.08,50.78,28.04,81.14,28.99-28.62-15.97-53.95-36.09-76.8-59.48Zm-131.4,27.39c17.52,3.32,31.05,11.61,44.86,19.37,14.55,8.18,33.34,13.42,50.09,13.34-29.52-17.44-59.27-56.74-94.95-32.72Zm38.53-308.39c17.72-.34,35.13-1.31,50.3-11.88,1.97-1.37,17.47-15.22,15.28-19.33-2.01-3.78-15.44-1.67-20.01-1.6-12.74.18-14.71,1.95-23.54,11.27-7.07,7.46-14.24,14.83-22.03,21.55Zm-320.23,113.17v.07c-5.71,0-16.98-2.18-22.18.05-5.86,2.51-5.21-.05-1.96,5.87,6.19,11.28,30.42,16.7,41.75,18.8,2.42.45,18.87,4.2,20.27,1.87,2.32-3.87-4.33-11.64-6.02-15.37-3.41-7.57-2.09-8.95-9.68-11.33-5.86-1.84-15.96.05-22.18.05Zm323.67,147.79c13.15,40.1,54.15,70.67,87.24,76.91-32.1-22.11-56.81-51.37-87.24-76.91Zm-14.49-293.92c-11.71,0-26.37,0-41.04,0-6.69,0,9.13,24.02,14.96,25.09,9.03,1.66,20.47-18.49,26.08-25.09Zm194.86,128.09c-11.46,0-22.92,0-34.38,0-6.07,0-18.07,17.84-22.95,22.13,22.26,1.02,41.02-6.94,57.33-22.14Zm67.25,1.97c-.18-.65-.37-1.3-.55-1.95-10.07,0-27.33-3.13-36.72.75-7.02,2.91-15.7,13.57-21.45,18.91,22.08-1.96,41.38-6.66,58.71-17.71Zm-350,134.38c-23.56-21.46-47.12-42.92-70.68-64.38-.45.5-.9,1-1.35,1.51,17.57,28.17,42.95,47.59,72.03,62.88Zm-139.46-89.05c-7.03-9.13-12.07-17.82-15.06-27.56-1.11-3.61-14.41-3.05-15.94-1.69-4.32,3.83-2.04,5.14,1.27,10.46,6.54,10.52,17.65,16.94,29.73,18.79Zm311.69-152.57c14.23-5.02,26.51-10.53,36.46-22.83-5.78,0-19.69-2.73-24.64.74-4.87,3.41-8.98,16.94-11.82,22.08Z"/>
      <path class="cls-1" d="m440.15,626.28c-85.28,0-170.56-.1-255.84.16-8.18.03-12.95-2.62-15.99-10.14-5.37-13.31-11.21-26.42-16.99-39.56-1.92-4.37-.56-6.04,3.97-5.95,4.78.09,9.57.09,14.36.02,90.27-1.3,180.55-.4,270.81-1.5,94.19-1.16,188.38-.22,282.56-.79,11.72-.07,11.81.07,7.44,10.86-4.74,11.69-9.76,23.26-14.47,34.96-3.32,8.23-8.88,11.92-18.05,11.9-85.93-.2-171.87-.12-257.8-.12v.16Z"/>
      <path class="cls-1" d="m442.48,534.41c106.42,0,212.83,0,319.25,0,1.96,0,3.93.15,5.87,0,6.05-.48,7.1,2.2,5.35,7.5-8.27,24.99-9.12,21.59-28.28,21.61-150.16.12-300.32-.32-450.47.45-53.95.28-107.92.18-161.87,1.1-8.91.15-14.63-2.54-17.28-11.22-1.4-4.57-3.14-9.03-4.8-13.52-1.61-4.37.12-6.1,4.49-5.98,2.83.08,5.66,0,8.49,0,106.42,0,212.83,0,319.25,0v.05Z"/>
      <path class="cls-1" d="m254.34,631.05c13.34,0,26.73-.37,40.06.02,9.88.29,10.77-.69,7.12,6.79-8.4,17.21-27.57,16.31-43.47,15.66-14.56-.6-48.82,7.8-55.26-10.18-4.13-11.52,3.55-12.16,12.41-12.25,13.04-.14,26.09-.01,39.14-.01v-.03Z"/>
      <path class="cls-1" d="m628.78,653.69c-9.94,0-22.67,2.08-32.31-.14-6.25-1.44-19.58-10.47-21.33-17.27-2.05-7.95,3.94-5.2,13-5.22,12.81-.04,25.63-.05,38.44-.03,11.23.01,22.47-.06,33.7.02,10.38.07,16.22-.44,12.99,12.03-4.46,17.23-31.1,10.59-44.49,10.59v.02Z"/>
    </g>
  </g>
</svg>